<?xml version="1.0" encoding="utf-8"?>
<!-- Generator: Adobe Illustrator 21.0.2, SVG Export Plug-In . SVG Version: 6.00 Build 0)  -->
<svg version="1.1" id="Capa_1" xmlns="http://www.w3.org/2000/svg" xmlns:xlink="http://www.w3.org/1999/xlink" x="0px" y="0px"
	 viewBox="0 0 47.8 47.8" style="enable-background:new 0 0 47.8 47.8;" xml:space="preserve">
<style type="text/css">
	.st0{opacity:0.25;}
	.st1{opacity:0.25;fill:none;stroke:#000000;stroke-miterlimit:10;}
</style>
<g class="st0">
	<g>
		<path d="M46.9,41.8H1l0-1c0-4.1,2.9-7.5,6.8-8.4V20.7c0-8.9,7.3-16.2,16.2-16.2c8.9,0,16.2,7.3,16.2,16.2v11.7
			c3.9,0.9,6.7,4.4,6.8,8.4L46.9,41.8z M3,39.8h41.8c-0.5-2.9-2.8-5.2-5.8-5.6l-0.9-0.1V20.7c0-7.8-6.4-14.2-14.2-14.2
			c-7.8,0-14.2,6.4-14.2,14.2v13.4l-0.9,0.1C5.8,34.6,3.5,36.9,3,39.8z"/>
	</g>
	<g>
		<path d="M21.1,6h-2V4.8c0-2.6,2.1-4.8,4.8-4.8c2.6,0,4.8,2.1,4.8,4.8V6h-2V4.8c0-1.5-1.3-2.8-2.8-2.8s-2.8,1.3-2.8,2.8V6z"/>
	</g>
	<g>
		<path d="M23.9,47.8c-3.9,0-7.4-2.8-8.2-6.7l2-0.4c0.6,2.9,3.2,5.1,6.2,5.1c3.1,0,5.7-2.2,6.2-5.2l2,0.4
			C31.4,45,27.9,47.8,23.9,47.8z"/>
	</g>
	<g>
		<rect x="8.7" y="32.2" width="3.7" height="2"/>
	</g>
	<g>
		<rect x="18.2" y="32.2" width="20.9" height="2"/>
	</g>
</g>
<line class="st1" x1="0" y1="0.2" x2="47.8" y2="47.9"/>
</svg>
