<?xml version="1.0" encoding="iso-8859-1"?>
<!-- Generator: Adobe Illustrator 16.0.0, SVG Export Plug-In . SVG Version: 6.00 Build 0)  -->
<!DOCTYPE svg PUBLIC "-//W3C//DTD SVG 1.1//EN" "http://www.w3.org/Graphics/SVG/1.1/DTD/svg11.dtd">
<svg xmlns="http://www.w3.org/2000/svg" xmlns:xlink="http://www.w3.org/1999/xlink" version="1.1" id="Capa_1" x="0px" y="0px" width="512px" height="512px" viewBox="0 0 54.819 54.819" style="enable-background:new 0 0 54.819 54.819;" xml:space="preserve">
<g>
	<path d="M54.378,32.83c-0.507-0.356-1.014-0.715-1.52-1.071c-1.511-1.064-3.021-2.132-4.529-3.195   c-0.158-0.113-0.318-0.228-0.479-0.338c-0.264-0.188-0.697-0.115-0.909,0.117c-1.832,2.013-3.663,4.023-5.495,6.035   c-1.82-2.008-3.643-4.016-5.465-6.023c-0.215-0.237-0.641-0.297-0.909-0.117c-2.385,1.605-4.771,3.213-7.155,4.818   c-0.467,0.313-0.402,0.766-0.402,1.248c0,0.789,0,1.58,0,2.368c0,0.291,0,0.582,0,0.873c-0.244,0.269-0.488,0.536-0.733,0.806   c-0.549-0.604-1.098-1.21-1.646-1.815c0-0.896,0-1.794,0-2.689c0-0.492,0-0.983,0-1.477c0-0.183-0.058-0.319-0.135-0.444   c0.746,0.229,1.55,0.336,2.429,0.253c4.304-0.41,6.618-4.517,7.485-8.558c1.432,3.3,4.514,6.296,8.354,5.083   c4.371-1.381,6.014-6.835,6.041-10.92c0-0.005-0.002-0.008-0.002-0.013c-0.022-3.105-0.855-6.232-2.84-8.667   c-1.601-1.96-4.177-3.024-6.65-2.242c-2.662,0.841-4.33,3.404-5.225,5.902c-0.142,0.392-0.263,0.793-0.366,1.199   c-0.385-0.984-0.871-1.925-1.492-2.785c-1.478-2.044-3.772-3.601-6.389-3.353c-2.674,0.254-4.731,2.208-6.008,4.452   c-0.226,0.396-0.424,0.808-0.607,1.227c-0.43-1.995-1.283-3.894-2.711-5.372c-1.836-1.9-4.572-2.432-6.904-1.137   c-2.528,1.403-3.852,4.455-4.307,7.176c-0.532,3.177-0.077,6.646,1.621,9.421c1.73,2.828,5.041,4.423,8.131,2.708   c1.402-0.778,2.424-2.018,3.138-3.453c0.285,1.636,0.853,3.395,1.714,4.947c-0.027-0.023-0.054-0.048-0.082-0.071   c-0.486-0.43-0.972-0.858-1.457-1.287c-0.388-0.342-0.884-0.253-1.178,0.152c-1.623,2.232-3.247,4.464-4.87,6.695   c-1.614-2.227-3.228-4.454-4.842-6.681c-0.299-0.412-0.784-0.484-1.178-0.152c-2.184,1.84-4.368,3.681-6.551,5.523   c-0.318,0.268-0.248,0.748-0.248,1.118c0,0.734,0,1.47,0,2.203c0,1.96,0,3.92,0,5.88c0,0.678,0,1.354,0,2.031   c0,0.409,0.341,0.75,0.75,0.75c3.596,0,7.192,0,10.788,0c0,0.349,0,0.694,0,1.042c0,0.922,0,1.847,0,2.769   c0,0.407,0.341,0.75,0.75,0.75c4.643,0,9.287,0,13.93,0c0,0.005,0.005,0.022,0.006,0.022h0.957c0.001,0,0.006-0.018,0.009-0.022   c0.975,0,1.948,0,2.923,0c3.515,0,7.026,0,10.539,0c0.2,0,0.351-0.074,0.468-0.178c0.021-0.016,0.044-0.028,0.063-0.048   c0.011-0.013,0.021-0.025,0.029-0.04c0.109-0.119,0.188-0.273,0.188-0.482c0-1.324,0-2.649,0-3.975c1.74,0,3.48,0,5.222,0   c2.479,0,4.961,0,7.44,0c0.202,0,0.353-0.074,0.469-0.179c0.021-0.016,0.044-0.028,0.062-0.047c0.012-0.012,0.02-0.025,0.029-0.038   c0.11-0.118,0.189-0.274,0.189-0.485c0-3.022,0-6.047,0-9.069C54.821,33.499,54.82,33.142,54.378,32.83z M38.438,10.062   c1.614-1.694,3.959-1.952,5.772-0.408c2.283,1.944,3.075,5.252,3.094,8.127c-0.02,2.833-0.779,5.901-2.875,7.929   c-1.604,1.551-3.859,1.646-5.562,0.198c-2.177-1.853-2.999-4.97-3.089-7.717C35.687,15.341,36.423,12.177,38.438,10.062z    M15.023,24.264c-1.924,1.427-4.152,0.661-5.506-1.144c-1.833-2.444-2.254-5.862-1.717-8.802c0.43-2.354,1.698-5.264,4.222-5.968   c1.627-0.454,3.184,0.564,4.128,1.823c1.383,1.841,1.907,4.207,1.923,6.473C18.054,19.318,17.298,22.577,15.023,24.264z    M25.134,38.766c0.102,0.112,0.204,0.226,0.306,0.338c-0.102-0.003-0.204-0.001-0.306-0.003   C25.134,38.99,25.134,38.878,25.134,38.766z M21.6,14.199c1.199-2.699,3.97-5.509,7.131-3.97c3.436,1.673,4.569,6.295,4.59,9.77   c-0.017,2.885-0.729,5.984-2.648,8.222c-1.412,1.645-3.57,2.553-5.633,1.549c-2.376-1.157-3.619-3.875-4.205-6.311   C20.11,20.449,20.338,17.039,21.6,14.199z M13.042,42.454c0-1.278,0-2.558,0-3.837c0.145,0.11,0.374,0.127,0.51-0.006   c1.08-1.049,2.384-2.11,3.824-2.594c0.131-0.044,0.312-0.062,0.5-0.08c-0.193,0.543-0.399,1.084-0.583,1.627   c-0.185,0.543-1.636,3.848-0.295,3.904c0.335,0.014,0.719-0.35,1.009-0.482c0.515-0.238,1.086-0.373,1.639-0.492   c1.183-0.256,2.4-0.343,3.607-0.389c0.127-0.005,0.255-0.003,0.383-0.006c0,0.785,0,1.568,0,2.354   C20.104,42.454,16.572,42.454,13.042,42.454z M17.655,34.809c0.059,0.115,0.119,0.229,0.177,0.345   c-0.057,0.007-0.113,0.014-0.169,0.021c-0.373,0.05-0.729,0.196-1.073,0.352C16.945,35.288,17.3,35.049,17.655,34.809z    M17.582,32.732c0.121,0.026,0.241,0.054,0.361,0.08c-0.093,0.062-0.187,0.125-0.279,0.188   C17.63,32.914,17.61,32.821,17.582,32.732z M22.832,39.124c-1.726,0.079-3.658,0.228-5.266,0.972   c0.023-0.087,0.038-0.177,0.061-0.263c0.231-0.845,0.514-1.677,0.801-2.504c0.469-1.352,0.957-2.714,1.529-4.027   c0.096,0.024,0.192,0.048,0.287,0.073c1.13,1.246,2.261,2.492,3.391,3.738c0,0.663,0,1.327,0,1.99   C23.366,39.109,23.098,39.111,22.832,39.124z M17.98,35.455c0.015,0.034,0.02,0.049,0.018,0.047   C18,35.503,17.995,35.489,17.98,35.455z M18.3,34.375c0.059-0.04,0.118-0.079,0.177-0.119c-0.036,0.094-0.065,0.188-0.101,0.28   C18.351,34.482,18.327,34.428,18.3,34.375z M22.731,33.886c0.062-0.167,0.044-0.396-0.025-0.552   c-0.504-1.136-1.315-2.179-1.992-3.213c-0.034-0.053-0.071-0.104-0.105-0.157c1.008,0.892,2.017,1.781,3.025,2.673   c0,0.748,0,1.496,0,2.243C23.333,34.55,23.032,34.218,22.731,33.886z M14.154,33.986c1.435-1.973,2.871-3.946,4.306-5.919   c0.016,0.014,0.032,0.028,0.048,0.042c0.378,0.626,0.799,1.23,1.194,1.836c0.46,0.704,0.923,1.408,1.375,2.118   c-0.119-0.131-0.238-0.263-0.357-0.395c-0.215-0.235-0.641-0.297-0.909-0.116c-0.337,0.227-0.673,0.452-1.01,0.681   c-0.526-0.123-1.055-0.238-1.584-0.348c-0.052-0.019-0.108-0.021-0.166-0.015c-0.18,0.013-0.307,0.142-0.348,0.293   c-0.002,0.008-0.001,0.017-0.002,0.023c-0.01,0.046-0.011,0.092-0.004,0.138c0,0.002,0,0.004,0,0.007   c0.063,0.38,0.184,0.743,0.323,1.102c-1.011,0.682-2.023,1.362-3.034,2.044C14.042,34.98,14.098,34.483,14.154,33.986z    M13.278,35.099c-0.035,0.309-0.069,0.615-0.104,0.925c-0.217,0.146-0.435,0.293-0.651,0.438c-0.052-0.453-0.103-0.906-0.154-1.36   C12.651,35.322,12.996,35.321,13.278,35.099z M11.542,39.144c0,1.104,0,2.207,0,3.31c-1.937,0-3.873,0-5.809,0   c-1.41,0-2.819,0-4.229,0c0-3.193,0-6.39,0-9.585c1.214-1.022,2.427-2.047,3.641-3.069c-0.793,1.131-1.601,2.253-2.186,3.493   c-0.125,0.267-0.194,0.836,0.284,0.793c0.199-0.018,0.366-0.137,0.549-0.212c0.373-0.15,0.763-0.267,1.149-0.378   c1.03-0.301,2.079-0.543,3.129-0.767c-0.258,0.831-0.708,1.582-1.067,2.382c-0.402,0.896,0.587,0.721,1.144,0.869   c1.24,0.327,2.411,1.217,3.395,2.113C11.542,38.444,11.542,38.793,11.542,39.144z M11.642,37.205   c-0.758-0.63-1.577-1.196-2.449-1.621c-0.385-0.188-0.79-0.333-1.211-0.409c-0.057-0.011-0.116-0.007-0.173-0.013   c0.457-0.91,0.97-1.812,1.14-2.829c0-0.002,0-0.004,0-0.006c0.007-0.048,0.006-0.096-0.005-0.145c-0.001-0.006,0-0.012-0.001-0.018   c-0.041-0.152-0.169-0.284-0.352-0.294c-0.059-0.009-0.115-0.004-0.168,0.016c-1.007,0.208-2.01,0.44-3.004,0.7   c-0.485,0.128-0.969,0.271-1.444,0.437c0.98-1.663,2.189-3.215,3.15-4.894c0.026-0.021,0.052-0.043,0.077-0.064   c1.43,1.974,2.86,3.947,4.291,5.92c0.112,0.993,0.225,1.985,0.337,2.978C11.753,37.034,11.691,37.114,11.642,37.205z M22.83,47.014   c-3.263,0-6.526,0-9.789,0c0-1.021,0-2.04,0-3.061c2.122,0,4.243,0,6.365,0c1.66,0,3.319,0,4.979,0   c0.209,0,0.365-0.078,0.483-0.188c0.014-0.012,0.028-0.021,0.041-0.031c0.019-0.021,0.032-0.041,0.048-0.063   c0.1-0.113,0.172-0.261,0.174-0.455c0.265,1.336,0.548,2.759,0.762,3.799C24.872,47.014,23.851,47.014,22.83,47.014z    M27.513,41.021c-0.421,0.151-0.757,0.271-0.757,0.271s-1.029-0.404-1.622-0.635c0-0.188,0-0.376,0-0.563   c0.288,0.005,0.575,0.008,0.863,0.019c0.151,0.006,0.304,0.013,0.455,0.021c0.211,0.101,0.466,0.094,0.674-0.016   c0.012-0.002,0.023,0.003,0.036,0c-0.117,0.032-0.027,0.004,0.075-0.005c0.092-0.008,0.185-0.012,0.276-0.017   C27.513,40.406,27.513,40.713,27.513,41.021z M29.014,38.122c1.5-1.647,3-3.296,4.5-4.941c0.123,0.087,0.245,0.173,0.368,0.26   c0.585,1.324,1.095,2.688,1.587,4.047c0.293,0.809,0.576,1.621,0.812,2.449c0.015,0.048,0.021,0.097,0.034,0.145   c-1.632-0.766-3.65-0.887-5.393-0.977c-0.638-0.034-1.273-0.042-1.91-0.038C29.014,38.75,29.014,38.436,29.014,38.122z    M39.908,47.014c-4.116,0-8.233,0-12.352,0c0.201-0.893,0.461-2.065,0.714-3.223c3.879,0,7.759,0,11.638,0   C39.908,44.866,39.908,45.939,39.908,47.014z M39.908,42.292c-1.4,0-2.802,0-4.203,0c-2.229,0-4.461,0-6.69,0   c0-0.745,0-1.488,0-2.233c0.495-0.001,0.99,0.008,1.484,0.024c1.223,0.043,2.446,0.149,3.647,0.391   c0.525,0.104,1.044,0.246,1.547,0.433c0.367,0.136,0.705,0.456,1.078,0.545c1.502,0.356-0.022-3.336-0.163-3.734   c-0.376-1.069-0.774-2.138-1.196-3.195c1.498,1.058,2.997,2.115,4.496,3.174C39.908,39.226,39.908,40.759,39.908,42.292z    M53.321,42.292c-3.971,0-7.941,0-11.913,0c0-1.276,0-2.556,0-3.833c0-0.383,0-0.768,0-1.149c0-0.528-0.653-0.851-1.037-1.119   c-1.528-1.078-3.058-2.157-4.587-3.236c-0.667-0.471-1.335-0.94-2.002-1.413c-0.263-0.187-0.695-0.113-0.908,0.117   c-1.286,1.413-2.573,2.826-3.859,4.239c0-0.592,0-1.186,0-1.776c2.104-1.418,4.211-2.837,6.315-4.255   c1.861,2.053,3.724,4.104,5.585,6.156c0.266,0.293,0.795,0.293,1.061,0c1.869-2.053,3.737-4.106,5.606-6.158   c1.913,1.351,3.826,2.7,5.739,4.051C53.321,36.707,53.321,39.499,53.321,42.292z" fill="#FFFFFF"/>
	<path d="M25.134,38.766c0,0.111,0,0.224,0,0.335c0.102,0.002,0.204,0,0.306,0.003C25.338,38.992,25.236,38.879,25.134,38.766z" fill="#FFFFFF"/>
	<path d="M17.98,35.455c0.015,0.034,0.02,0.049,0.018,0.047" fill="#FFFFFF"/>
	<path d="M18.3,34.375c0.026,0.054,0.05,0.107,0.076,0.161c0.036-0.093,0.064-0.188,0.101-0.28   C18.418,34.295,18.36,34.334,18.3,34.375z" fill="#FFFFFF"/>
	<path d="M17.942,32.812c-0.12-0.026-0.24-0.054-0.361-0.08c0.028,0.089,0.049,0.182,0.082,0.269   C17.756,32.937,17.849,32.875,17.942,32.812z" fill="#FFFFFF"/>
	<path d="M17.665,35.176c0.056-0.009,0.112-0.016,0.169-0.021c-0.059-0.114-0.118-0.229-0.177-0.345   c-0.355,0.239-0.71,0.479-1.065,0.718C16.934,35.373,17.292,35.225,17.665,35.176z" fill="#FFFFFF"/>
	<path d="M13.174,36.024c0.035-0.31,0.07-0.616,0.104-0.925c-0.282,0.222-0.627,0.223-0.91,0.002   c0.051,0.454,0.103,0.907,0.154,1.36C12.739,36.317,12.957,36.17,13.174,36.024z" fill="#FFFFFF"/>
	<path d="M23.634,32.637c-1.009-0.892-2.017-1.781-3.025-2.673c0.035,0.053,0.071,0.104,0.105,0.157   c0.677,1.034,1.488,2.077,1.992,3.213c0.069,0.155,0.087,0.385,0.025,0.552c0.301,0.332,0.602,0.664,0.903,0.994   C23.634,34.133,23.634,33.385,23.634,32.637z" fill="#FFFFFF"/>
	<path d="M27.162,40.12c-0.013,0.003-0.024-0.002-0.036,0c-0.208,0.108-0.463,0.115-0.674,0.016   c-0.151-0.01-0.304-0.017-0.455-0.021c-0.288-0.011-0.575-0.014-0.863-0.019c0,0.188,0,0.377,0,0.563   c0.593,0.229,1.622,0.635,1.622,0.635s0.336-0.119,0.757-0.271c0-0.309,0-0.615,0-0.923c-0.092,0.005-0.185,0.009-0.276,0.017   C27.134,40.124,27.045,40.152,27.162,40.12z" fill="#FFFFFF"/>
</g>
<g>
</g>
<g>
</g>
<g>
</g>
<g>
</g>
<g>
</g>
<g>
</g>
<g>
</g>
<g>
</g>
<g>
</g>
<g>
</g>
<g>
</g>
<g>
</g>
<g>
</g>
<g>
</g>
<g>
</g>
</svg>
