<?xml version="1.0" encoding="utf-8"?>
<!-- Generator: Adobe Illustrator 21.0.2, SVG Export Plug-In . SVG Version: 6.00 Build 0)  -->
<svg version="1.1" id="Capa_1" xmlns="http://www.w3.org/2000/svg" xmlns:xlink="http://www.w3.org/1999/xlink" x="0px" y="0px"
	 viewBox="0 0 155.7 155.7" style="enable-background:new 0 0 155.7 155.7;" xml:space="preserve">
<style type="text/css">
	.st0{opacity:0.25;}
	.st1{fill:none;stroke:#000000;stroke-width:3;stroke-miterlimit:10;}
</style>
<g class="st0">
	<g>
		<g id="_x33_50._Repeat">
			<g>
				<path d="M42.7,121.5c-12.8-10.3-20.9-26-20.9-43.7c0-26.1,17.9-48,42.1-54.2V9.2c-32,6.5-56.1,34.8-56.1,68.7
					c0,21,9.2,39.7,23.8,52.6C42.8,140.9,49.8,126.9,42.7,121.5z M123.6,24.7c-7.2-6.5-17.7,4-10.8,9.2
					c12.9,10.3,21.1,26.1,21.1,43.8c0,26.1-17.9,48-42.1,54.2v14.4c32-6.5,56.1-34.8,56.1-68.7C147.9,56.6,138.5,37.6,123.6,24.7z
					 M70,35.7L92.9,22c3.3-2,3.3-5.2,0-7.2l-23-13.9c-3.3-2-6-0.5-6,3.4l0.1,28C64,36.2,66.7,37.7,70,35.7z M85.9,120l-23,13.9
					c-3.3,2-3.3,5.2,0,7.2l22.8,13.7c3.3,2,6,0.5,6-3.4l0.1-28C91.9,119.5,89.2,118,85.9,120z"/>
			</g>
		</g>
	</g>
	<line class="st1" x1="-0.8" y1="-0.8" x2="157.3" y2="157.3"/>
</g>
</svg>
