<?xml version="1.0" encoding="iso-8859-1"?>
<!-- Generator: Adobe Illustrator 17.1.0, SVG Export Plug-In . SVG Version: 6.00 Build 0)  -->
<!DOCTYPE svg PUBLIC "-//W3C//DTD SVG 1.1//EN" "http://www.w3.org/Graphics/SVG/1.1/DTD/svg11.dtd">
<svg version="1.1" id="Capa_1" xmlns="http://www.w3.org/2000/svg" xmlns:xlink="http://www.w3.org/1999/xlink" x="0px" y="0px"
	 viewBox="0 0 495 495" style="enable-background:new 0 0 495 495;" xml:space="preserve">
<g>
	<path d="M290.196,194.207l-7.999,8c-2.929,2.929-2.929,7.678,0,10.606c1.464,1.465,3.384,2.197,5.303,2.197
		s3.839-0.732,5.303-2.197l8-8c2.929-2.929,2.928-7.678,0-10.606C297.874,191.278,293.125,191.279,290.196,194.207z"/>
	<path d="M266.197,218.207l-152,152c-2.929,2.929-2.929,7.678,0,10.606c1.464,1.464,3.384,2.197,5.303,2.197
		s3.839-0.732,5.303-2.197l152-152c2.929-2.929,2.929-7.678,0-10.606C273.875,215.279,269.125,215.279,266.197,218.207z"/>
	<path d="M493.282,92.575c-0.474-2.763-2.449-5.031-5.12-5.88c-2.671-0.85-5.594-0.138-7.575,1.844l-56.035,56.034l-57.671-15.453
		L351.428,71.45l44.929-44.93c4.407-4.407,5.75-11.01,3.421-16.823c-2.329-5.813-7.64-9.514-13.859-9.659
		c-17.897-0.41-35.419,3.891-52.071,12.796c-38.65,20.671-62.345,59.018-61.84,100.075c0.152,12.398,2.373,24.59,6.607,36.31
		L13.913,413.923C4.941,422.895,0,434.823,0,447.511c0,12.688,4.941,24.616,13.913,33.587c9.26,9.26,21.424,13.89,33.587,13.89
		s24.328-4.63,33.587-13.89L345.756,216.43c12.113,4.369,24.787,6.581,37.744,6.581c61.481,0,111.5-50.019,111.5-111.5
		C495,105.51,494.438,99.316,493.282,92.575z M383.5,208.011c-12.677,0-25.038-2.446-36.738-7.269
		c-2.8-1.152-6.019-0.511-8.162,1.631L70.481,470.492c-12.671,12.672-33.29,12.672-45.962,0C18.38,464.353,15,456.192,15,447.511
		s3.38-16.843,9.519-22.981l268.154-268.155c2.142-2.141,2.785-5.36,1.631-8.161c-4.692-11.387-7.147-23.328-7.296-35.489
		c-0.437-35.436,20.223-68.643,53.915-86.663c13.889-7.428,27.83-11.052,42.552-11.052c0.696,0,1.396,0.008,2.096,0.024
		c0.096,0.002,0.134,0.016,0.134,0.016c0.047,0.028,0.175,0.197,0.204,0.434c0.025,0.205-0.031,0.302-0.158,0.429L337.76,63.905
		c-1.895,1.895-2.635,4.656-1.941,7.244l17.694,66.036c0.694,2.588,2.715,4.61,5.303,5.304l66.036,17.694
		c2.59,0.694,5.35-0.046,7.244-1.941l47.896-47.895c0.005,0.389,0.008,0.777,0.008,1.164C480,164.721,436.71,208.011,383.5,208.011z
		"/>
	<path d="M47.5,424.011c-12.958,0-23.5,10.542-23.5,23.5s10.542,23.5,23.5,23.5s23.5-10.542,23.5-23.5S60.458,424.011,47.5,424.011z
		 M47.5,456.011c-4.687,0-8.5-3.813-8.5-8.5s3.813-8.5,8.5-8.5s8.5,3.813,8.5,8.5S52.187,456.011,47.5,456.011z"/>
</g>
<g>
</g>
<g>
</g>
<g>
</g>
<g>
</g>
<g>
</g>
<g>
</g>
<g>
</g>
<g>
</g>
<g>
</g>
<g>
</g>
<g>
</g>
<g>
</g>
<g>
</g>
<g>
</g>
<g>
</g>
</svg>
