<?xml version="1.0" encoding="utf-8"?>
<!-- Generator: Adobe Illustrator 21.0.2, SVG Export Plug-In . SVG Version: 6.00 Build 0)  -->
<svg version="1.1" id="Capa_1" xmlns="http://www.w3.org/2000/svg" xmlns:xlink="http://www.w3.org/1999/xlink" x="0px" y="0px"
	 viewBox="0 0 60 60" style="enable-background:new 0 0 60 60;" xml:space="preserve">
<style type="text/css">
	.st0{fill:#BFBFBF;}
</style>
<path class="st0" d="M46,47.4l-8.5-4.2c-0.8-0.4-1.3-1.2-1.3-2.1v-3c0.2-0.2,0.4-0.5,0.6-0.8c1.1-1.6,2-3.3,2.6-5.1
	c1.2-0.6,2.1-1.8,2.1-3.2v-3.5c0-0.9-0.3-1.7-0.9-2.3v-4.7c0-0.5,0.2-3.4-1.9-5.8C37,10.5,34,9.4,30,9.4s-7,1.1-8.8,3.1
	c-2.1,2.4-1.9,5.3-1.9,5.8V23c-0.6,0.6-0.9,1.5-0.9,2.3v3.5c0,1.1,0.5,2.1,1.3,2.8c0.8,3.2,2.5,5.6,3.1,6.4V41
	c0,0.9-0.5,1.6-1.2,2.1l-7.9,4.3c-2.6,1.4-4.2,4.1-4.2,7v2.9c0,4.2,13.3,5.3,20.4,5.3s20.4-1.1,20.4-5.3v-2.7
	C50.4,51.5,48.7,48.8,46,47.4z"/>
</svg>
